<svg xmlns="http://www.w3.org/2000/svg" width="32" height="28" viewBox="0 0 32 28"><path d="M28.9 5.3h-8v1.9h8v-1.9zM24.9 12q-1.4 0-2.3 0.8t-1 2.2h6.4q-0.3-3-3.1-3zM25.2 21.1q1 0 1.9-0.5t1.2-1.4h3.5q-1.6 4.8-6.7 4.8-3.3 0-5.3-2.1t-2-5.4q0-3.2 2-5.4t5.3-2.1q2.2 0 3.8 1.1t2.4 2.8 0.8 3.9q0 0.3 0 0.7h-10.3q0 1.7 0.9 2.7t2.6 0.9zM4.3 20.3h4.6q3.2 0 3.2-2.6 0-2.8-3.1-2.8h-4.7v5.4zM4.3 11.9h4.4q1.2 0 1.9-0.6t0.7-1.8q0-2.2-3-2.2h-4.1v4.6zM0 4h9.3q1.4 0 2.4 0.2t2 0.7 1.4 1.5 0.5 2.4q0 2.8-2.7 4.1 1.8 0.5 2.7 1.8t0.9 3.2q0 1.2-0.4 2.1t-1 1.6-1.5 1.1-1.9 0.7-2.1 0.2h-9.5v-19.7z" fill="#9c9c9c"/></svg>